<?xml version="1.0"?>
<svg xmlns="http://www.w3.org/2000/svg" xmlns:xlink="http://www.w3.org/1999/xlink" xmlns:svgjs="http://svgjs.com/svgjs" version="1.1" width="512" height="512" x="0" y="0" viewBox="0 0 24 24" style="enable-background:new 0 0 512 512" xml:space="preserve"><g><g xmlns="http://www.w3.org/2000/svg"><path d="m17.768 14h-11.536c-.972 0-1.804-.699-1.97-1.657l-1.247-7.172c-.064-.369.083-.743.382-.969.298-.227.698-.265 1.036-.104l3.678 1.768 3.018-5.357c.382-.679 1.36-.679 1.742 0l3.018 5.357 3.678-1.768c.337-.161.738-.123 1.036.104.299.226.446.6.382.969l-1.247 7.171c-.166.959-.998 1.658-1.97 1.658z" fill="#ffffff" data-original="#000000" style=""/></g><g xmlns="http://www.w3.org/2000/svg"><path d="m18.46 19.85c-.33-.17-.73-.15-1.03.07-.35.24-.46.21-.54.14l-.83-1.02c-.55-.67-1.42-1.04-2.31-1.04-.47 0-.95.1-1.39.32-.22.1-.5.1-.72 0-.44-.22-.92-.32-1.39-.32-.89 0-1.76.37-2.31 1.04l-.83 1.02c-.08.07-.19.1-.54-.14-.3-.21-.7-.24-1.03-.07s-.54.51-.54.89c0 1.8 1.69 3.26 3.77 3.26 1.22 0 2.36-.39 3.23-1.1.86.71 2.01 1.1 3.23 1.1 2.08 0 3.77-1.46 3.77-3.26 0-.38-.21-.72-.54-.89z" fill="#ffffff" data-original="#000000" style=""/></g></g></svg>
